<?xml version="1.0" encoding="UTF-8" standalone="no"?>
<!-- Uploaded to: SVG Repo, www.svgrepo.com, Generator: SVG Repo Mixer Tools -->

<svg
   width="800px"
   height="800px"
   viewBox="0 0 48 48"
   version="1.1"
   id="svg2"
   sodipodi:docname="explore_svg.svg"
   inkscape:version="1.3.2 (091e20e, 2023-11-25, custom)"
   xmlns:inkscape="http://www.inkscape.org/namespaces/inkscape"
   xmlns:sodipodi="http://sodipodi.sourceforge.net/DTD/sodipodi-0.dtd"
   xmlns="http://www.w3.org/2000/svg"
   xmlns:svg="http://www.w3.org/2000/svg">
  <defs
     id="defs2" />
  <sodipodi:namedview
     id="namedview2"
     pagecolor="#505050"
     bordercolor="#eeeeee"
     borderopacity="1"
     inkscape:showpageshadow="0"
     inkscape:pageopacity="0"
     inkscape:pagecheckerboard="0"
     inkscape:deskcolor="#505050"
     inkscape:zoom="1.0438664"
     inkscape:cx="232.78841"
     inkscape:cy="336.72892"
     inkscape:window-width="2560"
     inkscape:window-height="1377"
     inkscape:window-x="1912"
     inkscape:window-y="-8"
     inkscape:window-maximized="1"
     inkscape:current-layer="svg2" />
  <title
     id="title1">explore</title>
  <g
     id="Layer_2"
     data-name="Layer 2"
     inkscape:label="Layer_2">
    <g
       id="icons_Q2"
       data-name="icons Q2">
      <path
         d="M24,6A18,18,0,1,1,6,24,18.1,18.1,0,0,1,24,6m0-4A22,22,0,1,0,46,24,21.9,21.9,0,0,0,24,2Z"
         id="path1"
         style="fill:#ffffff" />
      <path
         d="M33.3,13.3,20,20,13.3,33.3a1.1,1.1,0,0,0,1.4,1.4L28,28l6.7-13.3A1.1,1.1,0,0,0,33.3,13.3ZM24,26a2,2,0,1,1,2-2A2,2,0,0,1,24,26Z"
         id="path2"
         style="fill:#ffffff" />
    </g>
  </g>
</svg>
