<?xml version="1.0" encoding="UTF-8" standalone="no"?>
<!-- Created with Inkscape (http://www.inkscape.org/) -->

<svg
   width="21.938625mm"
   height="21.817493mm"
   viewBox="0 0 21.938626 21.817494"
   version="1.1"
   id="svg1"
   xml:space="preserve"
   sodipodi:docname="MSFC_Site_Icon.svg"
   inkscape:version="1.3.2 (091e20e, 2023-11-25, custom)"
   xmlns:inkscape="http://www.inkscape.org/namespaces/inkscape"
   xmlns:sodipodi="http://sodipodi.sourceforge.net/DTD/sodipodi-0.dtd"
   xmlns="http://www.w3.org/2000/svg"
   xmlns:svg="http://www.w3.org/2000/svg"><sodipodi:namedview
     id="namedview1"
     pagecolor="#505050"
     bordercolor="#eeeeee"
     borderopacity="1"
     inkscape:showpageshadow="0"
     inkscape:pageopacity="0"
     inkscape:pagecheckerboard="0"
     inkscape:deskcolor="#505050"
     inkscape:document-units="mm"
     inkscape:zoom="3.5625548"
     inkscape:cx="23.859282"
     inkscape:cy="39.999385"
     inkscape:window-width="2560"
     inkscape:window-height="1377"
     inkscape:window-x="1912"
     inkscape:window-y="-8"
     inkscape:window-maximized="1"
     inkscape:current-layer="svg1" /><defs
     id="defs1" /><g
     id="layer3"
     style="display:inline"
     transform="translate(-144.01467,-137.49442)"><path
       style="fill:#171652;fill-opacity:1;stroke:#161551;stroke-width:0.615;stroke-linecap:round;stroke-linejoin:round;stroke-dasharray:none;stroke-opacity:1"
       d="m 152.61787,142.91532 c 0,0 3.91213,-6.16829 12.15874,-4.95686"
       id="path41" /><path
       style="fill:#171652;fill-opacity:1;stroke:#161551;stroke-width:0.615;stroke-linecap:round;stroke-linejoin:round;stroke-dasharray:none;stroke-opacity:1"
       d="m 164.85901,138.02323 c 0,0 1.09604,-0.46572 0.69373,3.42236 -0.26172,2.52945 -2.0401,7.04737 -5.05581,9.6363"
       id="path42" /><path
       style="fill:#171652;fill-opacity:1;stroke:#161551;stroke-width:0.615;stroke-linecap:round;stroke-linejoin:round;stroke-dasharray:none;stroke-opacity:1"
       d="m 152.52895,142.95977 c 0,0 -2.4296,-0.6079 -3.91888,0.5035"
       id="path43" /><path
       style="fill:#171652;fill-opacity:1;stroke:#161551;stroke-width:0.615;stroke-linecap:round;stroke-linejoin:round;stroke-dasharray:none;stroke-opacity:1"
       d="m 148.55013,143.50436 c 0,0 -0.46309,0.39776 -1.08918,1.52262 -0.65572,1.17809 -3.0119,6.03492 -3.0119,6.03492"
       id="path44" /><path
       style="fill:#171652;fill-opacity:1;stroke:#161551;stroke-width:0.615;stroke-linecap:round;stroke-linejoin:round;stroke-dasharray:none;stroke-opacity:1"
       d="m 144.4046,151.17304 c 0,0 -0.51125,1.43371 1.05582,1.04471"
       id="path45" /><path
       style="fill:#171652;fill-opacity:1;stroke:#161551;stroke-width:0.615;stroke-linecap:round;stroke-linejoin:round;stroke-dasharray:none;stroke-opacity:1"
       d="m 145.52711,152.21776 2.98967,-1.16699"
       id="path46" /><path
       style="fill:#171652;fill-opacity:1;stroke:#161551;stroke-width:0.615;stroke-linecap:round;stroke-linejoin:round;stroke-dasharray:none;stroke-opacity:1"
       d="m 149.28365,150.77293 c 0,0 -3.71209,3.63429 -4.70124,6.63507"
       id="path47" /><path
       style="fill:#171652;fill-opacity:1;stroke:#161551;stroke-width:0.615;stroke-linecap:round;stroke-linejoin:round;stroke-dasharray:none;stroke-opacity:1"
       d="m 144.58242,157.43024 c 0,0 -0.97804,2.12277 1.14474,1.4337"
       id="path48" /><path
       style="fill:#171652;fill-opacity:1;stroke:#161551;stroke-width:0.615;stroke-linecap:round;stroke-linejoin:round;stroke-dasharray:none;stroke-opacity:1"
       d="m 145.90499,158.81949 c 0,0 2.97093,-0.86118 6.37183,-4.17316"
       id="path49" /><path
       style="fill:#171652;fill-opacity:1;stroke:#161551;stroke-width:0.615;stroke-linecap:round;stroke-linejoin:round;stroke-dasharray:none;stroke-opacity:1"
       d="m 152.54674,154.90525 c -0.0778,0.30008 -1.25589,3.14527 -1.25589,3.14527"
       id="path50" /><path
       style="fill:#171652;fill-opacity:1;stroke:#161551;stroke-width:0.615;stroke-linecap:round;stroke-linejoin:round;stroke-dasharray:none;stroke-opacity:1"
       d="m 151.31752,157.98594 c 0,0 -0.62239,1.48927 1.31145,0.77799"
       id="path51" /><path
       style="fill:#171652;fill-opacity:1;stroke:#161551;stroke-width:0.615;stroke-linecap:round;stroke-linejoin:round;stroke-dasharray:none;stroke-opacity:1"
       d="m 152.64009,158.75281 6.52393,-3.23419"
       id="path52" /><path
       style="fill:#171652;fill-opacity:1;stroke:#161551;stroke-width:0.615;stroke-linecap:round;stroke-linejoin:round;stroke-dasharray:none;stroke-opacity:1"
       d="m 159.05288,155.58531 c 0,0 2.06721,-0.84467 1.52263,-4.36782"
       id="path53" /><path
       style="fill:#171652;fill-opacity:1;stroke:#161551;stroke-width:0.276164;stroke-linecap:round;stroke-linejoin:round;stroke-dasharray:none;stroke-opacity:1"
       d="m 547.09969,599.38703 c -0.29032,-0.29033 -0.30418,-0.35767 -0.24224,-1.17668 0.10669,-1.41077 1.38258,-4.87894 2.76311,-7.51086 2.78691,-5.31309 7.32374,-11.33677 13.52485,-17.95733 1.18469,-1.26483 2.19794,-2.41432 2.25165,-2.55443 0.13441,-0.35056 -0.10549,-1.09621 -0.42461,-1.31973 -0.14332,-0.10038 -0.49497,-0.18251 -0.78145,-0.18251 -0.4848,0 -0.58125,0.0585 -1.39276,0.84542 l -0.87189,0.84543 -0.31958,-0.25137 c -0.17576,-0.13826 -0.48612,-0.25122 -0.68968,-0.25102 -0.20356,2e-4 -2.80275,0.95481 -5.77598,2.12136 -4.32232,1.69587 -5.59638,2.14835 -6.35635,2.25747 -1.72812,0.24813 -2.186,-0.10315 -2.03636,-1.56229 0.0627,-0.61086 0.29321,-1.18719 1.34079,-3.35155 2.40123,-4.96109 9.17897,-18.53879 10.02304,-20.07894 1.60157,-2.92233 3.63447,-5.71003 4.48805,-6.15444 0.1776,-0.0925 0.6366,-0.36047 1.02,-0.59557 1.04233,-0.63913 2.25246,-1.10448 3.64242,-1.40068 1.78434,-0.38024 5.02196,-0.37331 7.06628,0.0151 2.00043,0.3801 2.4578,0.40954 2.89001,0.18604 0.20357,-0.10527 0.83434,-0.80469 1.42918,-1.58473 4.03768,-5.29477 9.58208,-9.85504 15.72325,-12.93238 6.92406,-3.46966 14.83651,-5.0939 22.80245,-4.68082 2.59623,0.13464 5.0469,0.40547 5.25858,0.58115 0.076,0.0631 0.37597,0.13171 0.6666,0.15254 0.45008,0.0322 0.56913,0.0984 0.80279,0.44624 0.62773,0.93439 0.87763,2.57941 0.87648,5.76976 -0.002,5.9175 -0.95764,10.90117 -3.3007,17.21544 -1.01589,2.73771 -3.03543,7.13603 -4.28024,9.32185 -3.14429,5.52121 -5.68927,8.91042 -9.62097,12.81244 -2.34655,2.32886 -2.41584,2.4397 -2.01283,3.21996 0.42022,0.81358 0.5687,4.86341 0.25352,6.9148 -0.46587,3.03217 -1.54482,5.2893 -3.3656,7.04074 l -0.83501,0.8032 -12.68076,6.29625 c -6.97443,3.46294 -13.02177,6.40158 -13.43854,6.53031 -0.41677,0.12873 -1.09738,0.26884 -1.51246,0.31137 -0.67641,0.0693 -0.7818,0.0502 -1.01612,-0.18412 -0.3829,-0.3829 -0.27001,-0.8522 0.90172,-3.74847 4.12015,-10.18414 4.14771,-10.26805 3.58641,-10.92059 -0.2122,-0.24671 -0.42607,-0.34636 -0.84459,-0.39353 -0.30823,-0.0347 -0.56042,-0.10831 -0.56042,-0.16347 0,-0.16455 -0.67503,-0.46285 -1.04737,-0.46285 -0.41736,0 -0.71049,0.21457 -2.10111,1.53794 -5.50059,5.23459 -12.58629,10.08113 -18.475,12.63667 -2.6423,1.14669 -5.06896,1.8608 -6.33205,1.86338 -0.5836,10e-4 -0.7355,-0.0455 -0.99651,-0.30654 z"
       id="path57"
       transform="scale(0.26458333)" /></g><g
     id="layer2"
     style="display:inline"
     transform="translate(-144.01467,-137.49442)"><ellipse
       style="fill:none;fill-opacity:1;stroke:#4a87e3;stroke-width:0.322182;stroke-dasharray:none;stroke-opacity:1"
       id="path4"
       ry="1.0704277"
       rx="1.094004"
       cy="141.39955"
       cx="162.07608" /><ellipse
       style="fill:none;fill-opacity:1;stroke:#4a87e3;stroke-width:0.615;stroke-dasharray:none;stroke-opacity:1"
       id="path4-9"
       ry="2.1068439"
       rx="2.0243263"
       cy="144.48767"
       cx="158.9966" /><path
       style="fill:none;fill-opacity:1;stroke:#4a87e3;stroke-width:0.515;stroke-linecap:round;stroke-dasharray:none;stroke-opacity:1"
       d="m 150.27609,151.43919 c 0,0 -0.81732,-5.5326 4.07086,-10.05927 4.88818,-4.52667 10.60939,-3.06493 10.60939,-3.06493"
       id="path5" /><path
       style="fill:none;fill-opacity:1;stroke:#4a87e3;stroke-width:0.515001;stroke-linecap:round;stroke-dasharray:none;stroke-opacity:1"
       d="m 152.09933,153.01095 c 0,0 7.05721,0.72301 10.20073,-4.49523 3.14352,-5.21825 3.34785,-7.70163 2.86061,-10.05928"
       id="path6" /><path
       style="display:inline;fill:none;fill-opacity:1;stroke:#4a87e3;stroke-width:0.515001;stroke-linecap:round;stroke-dasharray:none;stroke-opacity:1"
       d="m 152.44004,143.32653 c 0,0 -2.20058,-0.43344 -3.11193,0.17783 -0.91135,0.61127 -1.08918,0.66684 -1.48928,1.42259 -0.40011,0.75576 -3.12304,6.1794 -3.12304,6.1794 0,0 -0.389,1.22255 0.61127,0.87801 1.00026,-0.34453 4.69012,-2.16723 4.69012,-2.16723"
       id="path7" /><path
       style="display:inline;fill:none;fill-opacity:1;stroke:#4a87e3;stroke-width:0.515001;stroke-linecap:round;stroke-dasharray:none;stroke-opacity:1"
       d="m 160.24885,150.83499 c 0,0 0.43344,2.20058 -0.17783,3.11193 -0.61127,0.91135 -0.66684,1.08918 -1.42259,1.48928 -0.75576,0.40011 -6.1794,3.12304 -6.1794,3.12304 0,0 -1.22255,0.389 -0.87801,-0.61127 0.34453,-1.00026 2.16723,-4.69012 2.16723,-4.69012"
       id="path7-6" /><path
       style="fill:none;fill-opacity:1;stroke:#4a87e3;stroke-width:0.515001;stroke-linecap:round;stroke-linejoin:round;stroke-dasharray:none;stroke-opacity:1"
       d="m 156.06321,147.22756 -1.94495,0.0556 c 0,0 -0.22229,0.0111 -0.43345,0.27785 -0.21117,0.26674 -5.91267,7.46862 -5.91267,7.46862 0,0 -0.21116,0.40011 0.0111,0.56682 0.22228,0.16671 0.35565,0.17783 0.46679,0.11114 0.11114,-0.0667 7.45751,-5.76818 7.45751,-5.76818 0,0 0.32231,-0.21117 0.35565,-0.48902 0.0333,-0.27785 0.12225,-2.02275 0.12225,-2.02275 0,0 0.0361,-0.16116 -0.12225,-0.20005 z"
       id="path9" /><path
       style="fill:none;fill-opacity:1;stroke:#4a87e3;stroke-width:0.215;stroke-linecap:round;stroke-linejoin:round;stroke-dasharray:none;stroke-opacity:1"
       d="m 162.67606,138.28076 c 0,0 1.0336,1.57819 2.50065,2.24504"
       id="path10" /><path
       style="fill:none;fill-opacity:1;stroke:#4a87e3;stroke-width:0.215;stroke-linecap:round;stroke-linejoin:round;stroke-dasharray:none;stroke-opacity:1"
       d="m 160.45325,138.48081 c 0,0 0.65573,1.17809 1.4226,1.76714"
       id="path11" /><path
       style="fill:none;fill-opacity:1;stroke:#4a87e3;stroke-width:0.215;stroke-linecap:round;stroke-linejoin:round;stroke-dasharray:none;stroke-opacity:1"
       d="m 163.25399,141.45937 c 0,0 0.83355,0.65573 1.68933,0.96692"
       id="path12" /><path
       style="fill:none;fill-opacity:1;stroke:#4a87e3;stroke-width:0.215;stroke-linecap:round;stroke-linejoin:round;stroke-dasharray:none;stroke-opacity:1"
       d="m 158.46384,139.04763 c 0,0 2.21169,4.44561 5.7793,5.64593"
       id="path13" /><path
       style="fill:none;fill-opacity:1;stroke:#4a87e3;stroke-width:0.215;stroke-linecap:round;stroke-linejoin:round;stroke-dasharray:none;stroke-opacity:1"
       d="m 156.35217,140.02567 c 0,0 0.76687,1.5115 1.5782,2.41174"
       id="path14" /><path
       style="fill:none;fill-opacity:1;stroke:#4a87e3;stroke-width:0.215;stroke-linecap:round;stroke-linejoin:round;stroke-dasharray:none;stroke-opacity:1"
       d="m 160.9645,145.47154 c 0,0 1.0336,1.02249 2.10055,1.41148"
       id="path15" /><path
       style="fill:none;fill-opacity:1;stroke:#4a87e3;stroke-width:0.215;stroke-linecap:round;stroke-linejoin:round;stroke-dasharray:none;stroke-opacity:1"
       d="m 154.50725,141.38158 c 0,0 1.53373,2.63402 2.24503,3.24529"
       id="path16" /><path
       style="fill:none;fill-opacity:1;stroke:#4a87e3;stroke-width:0.215;stroke-linecap:round;stroke-linejoin:round;stroke-dasharray:none;stroke-opacity:1"
       d="m 158.8306,146.78299 c 0,0 1.93385,1.72268 3.03413,2.14501"
       id="path17" /><path
       style="fill:none;fill-opacity:1;stroke:#4a87e3;stroke-width:0.215;stroke-linecap:round;stroke-linejoin:round;stroke-dasharray:none;stroke-opacity:1"
       d="m 152.95128,143.08202 c 0,0 2.24504,4.65678 7.25746,7.54643"
       id="path18" /><path
       style="fill:none;fill-opacity:1;stroke:#4a87e3;stroke-width:0.215;stroke-linecap:round;stroke-linejoin:round;stroke-dasharray:none;stroke-opacity:1"
       d="m 151.59537,145.18257 c 0,0 0.38899,0.91135 1.81159,2.38952"
       id="path19" /><path
       style="fill:none;fill-opacity:1;stroke:#4a87e3;stroke-width:0.215;stroke-linecap:round;stroke-linejoin:round;stroke-dasharray:none;stroke-opacity:1"
       d="m 155.7409,150.13943 c 0,0 0.96692,1.16698 2.43398,1.77825"
       id="path20" /><path
       style="fill:none;fill-opacity:1;stroke:#4a87e3;stroke-width:0.215;stroke-linecap:round;stroke-linejoin:round;stroke-dasharray:none;stroke-opacity:1"
       d="m 150.73959,147.58321 c 0,0 0.40011,1.08917 1.267,1.86715"
       id="path21" /><path
       style="fill:none;fill-opacity:1;stroke:#4a87e3;stroke-width:0.215;stroke-linecap:round;stroke-linejoin:round;stroke-dasharray:none;stroke-opacity:1"
       d="m 153.92932,151.52869 c 0,0 0.41121,0.5557 1.54485,1.1114"
       id="path22" /><path
       style="fill:none;fill-opacity:1;stroke:#4a87e3;stroke-width:0.215;stroke-linecap:round;stroke-linejoin:round;stroke-dasharray:none;stroke-opacity:1"
       d="m 152.18441,149.59484 c 0,0 0.48902,1.01138 1.61154,1.62265"
       id="path23" /><path
       style="fill:none;fill-opacity:1;stroke:#4a87e3;stroke-width:0.215;stroke-linecap:round;stroke-linejoin:round;stroke-dasharray:none;stroke-opacity:1"
       d="m 153.90709,147.53875 c 0,0 0.44456,1.12252 1.93384,2.01164"
       id="path24" /><path
       style="fill:none;fill-opacity:1;stroke:#4a87e3;stroke-width:0.215;stroke-linecap:round;stroke-linejoin:round;stroke-dasharray:none;stroke-opacity:1"
       d="m 150.60622,151.68428 c 0,0 0.58905,0.90024 1.10029,1.17809"
       id="path25" /><path
       style="fill:none;fill-opacity:1;stroke:#4a87e3;stroke-width:0.215;stroke-linecap:round;stroke-linejoin:round;stroke-dasharray:none;stroke-opacity:1"
       d="m 149.22808,153.45141 c 0,0 0.2334,0.45568 0.6335,0.75576"
       id="path26" /><path
       style="fill:none;fill-opacity:1;stroke:#4a87e3;stroke-width:0.215;stroke-linecap:round;stroke-linejoin:round;stroke-dasharray:none;stroke-opacity:1"
       d="m 147.8944,155.45194 8.13433,-7.97359"
       id="path27" /><path
       style="fill:none;fill-opacity:1;stroke:#4a87e3;stroke-width:0.215;stroke-linecap:round;stroke-linejoin:round;stroke-dasharray:none;stroke-opacity:1"
       d="m 152.14648,149.16014 c 0,0 1.0688,-7.16723 12.60553,-10.65654"
       id="path28" /><path
       style="fill:none;fill-opacity:1;stroke:#4a87e3;stroke-width:0.215;stroke-linecap:round;stroke-linejoin:round;stroke-dasharray:none;stroke-opacity:1"
       d="m 154.34695,151.23486 c 0,0 6.6957,-0.88018 10.4365,-12.66839"
       id="path29" /><path
       style="fill:none;fill-opacity:1;stroke:#4a87e3;stroke-width:0.215;stroke-linecap:round;stroke-linejoin:round;stroke-dasharray:none;stroke-opacity:1"
       d="m 152.02074,158.43353 5.54832,-5.98841"
       id="path30" /><path
       style="fill:none;fill-opacity:1;stroke:#4a87e3;stroke-width:0.215;stroke-linecap:round;stroke-linejoin:round;stroke-dasharray:none;stroke-opacity:1"
       d="m 152.28794,156.54742 c 0,0 0.5344,0.97449 1.25741,1.32027"
       id="path31" /><path
       style="fill:none;fill-opacity:1;stroke:#4a87e3;stroke-width:0.215;stroke-linecap:round;stroke-linejoin:round;stroke-dasharray:none;stroke-opacity:1"
       d="m 153.41961,154.3941 c 0,0 1.336,1.9647 2.18475,2.37336"
       id="path32" /><path
       style="fill:none;fill-opacity:1;stroke:#4a87e3;stroke-width:0.215;stroke-linecap:round;stroke-linejoin:round;stroke-dasharray:none;stroke-opacity:1"
       d="m 155.36859,153.02667 c 0,0 0.69158,1.24169 2.43623,2.60912"
       id="path33" /><path
       style="fill:none;fill-opacity:1;stroke:#4a87e3;stroke-width:0.215;stroke-linecap:round;stroke-linejoin:round;stroke-dasharray:none;stroke-opacity:1"
       d="m 157.85198,152.39797 c 0,0 1.00593,1.28884 1.83896,1.80752"
       id="path34" /><path
       style="fill:none;fill-opacity:1;stroke:#4a87e3;stroke-width:0.215;stroke-linecap:round;stroke-linejoin:round;stroke-dasharray:none;stroke-opacity:1"
       d="m 149.42734,143.58039 c 0,0 1.19454,1.55604 1.77609,1.85467"
       id="path35" /><path
       style="fill:none;fill-opacity:1;stroke:#4a87e3;stroke-width:0.215;stroke-linecap:round;stroke-linejoin:round;stroke-dasharray:none;stroke-opacity:1"
       d="m 147.76127,145.30932 c 0,0 1.52461,2.01186 2.57769,2.89204"
       id="path36" /><path
       style="fill:none;fill-opacity:1;stroke:#4a87e3;stroke-width:0.215;stroke-linecap:round;stroke-linejoin:round;stroke-dasharray:none;stroke-opacity:1"
       d="m 146.75534,147.54122 c 0,0 1.11595,1.50889 2.27906,2.4991"
       id="path37" /><path
       style="fill:none;fill-opacity:1;stroke:#4a87e3;stroke-width:0.215;stroke-linecap:round;stroke-linejoin:round;stroke-dasharray:none;stroke-opacity:1"
       d="m 145.62368,149.64738 c 0,0 0.55011,0.89591 1.27312,1.44602"
       id="path38" /><path
       style="fill:none;fill-opacity:1;stroke:#4a87e3;stroke-width:0.215;stroke-linecap:round;stroke-linejoin:round;stroke-dasharray:none;stroke-opacity:1"
       d="m 144.86923,151.8007 6.23989,-6.2399"
       id="path39" /><path
       style="fill:none;fill-opacity:1;stroke:#4a87e3;stroke-width:0.215;stroke-linecap:round;stroke-linejoin:round;stroke-dasharray:none;stroke-opacity:1"
       d="m 150.02461,150.60616 c 0,0 -2.31049,2.48338 -3.06494,4.98248 -0.75444,2.4991 4.54239,-1.17882 4.54239,-1.17882 l 1.50889,-1.14739"
       id="path40" /><path
       style="fill:none;fill-opacity:1;stroke:#4a87e3;stroke-width:0.28103;stroke-linecap:round;stroke-linejoin:round;stroke-dasharray:none;stroke-opacity:1"
       d="m 149.9601,150.40577 c 0,0 -4.35791,3.8879 -5.30361,7.29426 -0.94569,3.40636 6.29111,-2.18832 6.29111,-2.18832 l 2.19002,-2.23979"
       id="path40-7" /></g></svg>
