<?xml version="1.0" encoding="UTF-8" standalone="no"?>
<!-- Created with Inkscape (http://www.inkscape.org/) -->

<svg
   width="60.751511mm"
   height="79.923271mm"
   viewBox="0 0 60.751511 79.923271"
   version="1.1"
   id="svg1"
   xml:space="preserve"
   xmlns:inkscape="http://www.inkscape.org/namespaces/inkscape"
   xmlns:sodipodi="http://sodipodi.sourceforge.net/DTD/sodipodi-0.dtd"
   xmlns="http://www.w3.org/2000/svg"
   xmlns:svg="http://www.w3.org/2000/svg"><sodipodi:namedview
     id="namedview1"
     pagecolor="#505050"
     bordercolor="#eeeeee"
     borderopacity="1"
     inkscape:showpageshadow="0"
     inkscape:pageopacity="0"
     inkscape:pagecheckerboard="0"
     inkscape:deskcolor="#505050"
     inkscape:document-units="mm" /><defs
     id="defs1" /><g
     inkscape:label="Layer 1"
     inkscape:groupmode="layer"
     id="layer1"
     transform="translate(-69.737559,-99.856652)"><path
       id="path1"
       style="display:inline;opacity:1;fill:#ffffff;fill-opacity:1;stroke-width:1.77179;stroke-linecap:round;stroke-linejoin:round;paint-order:stroke markers fill"
       d="m 100.1129,99.856652 a 30.375687,29.654727 0 0 0 -30.375341,29.654508 30.375687,29.654727 0 0 0 5.051596,16.33258 c 0.02498,0.0506 0.211421,0.43366 0.211421,0.43366 l 22.287294,32.26729 c 0,0 0.96684,1.23523 2.76593,1.23523 1.79912,0 2.9091,-1.137 2.9091,-1.137 0,0 15.32375,-22.05425 20.55098,-29.71612 0.75304,-1.10376 1.39459,-2.14839 1.97936,-3.15548 a 30.375687,29.654727 0 0 0 4.99583,-16.26016 30.375687,29.654727 0 0 0 -30.37617,-29.654508 z m 0.0308,16.703808 A 12.790852,13.175538 0 0 1 112.93459,129.7359 12.790852,13.175538 0 0 1 100.1437,142.91134 12.790852,13.175538 0 0 1 87.352814,129.7359 12.790852,13.175538 0 0 1 100.1437,116.56046 Z" /></g></svg>
